<svg xmlns="http://www.w3.org/2000/svg" xmlns:xlink="http://www.w3.org/1999/xlink" width="513" zoomAndPan="magnify" viewBox="0 0 384.75 142.499996" height="190" preserveAspectRatio="xMidYMid meet" version="1.0"><defs><g/><clipPath id="d5c095ba21"><path d="M 75 24 L 104.859375 24 L 104.859375 54 L 75 54 Z M 75 24 " clip-rule="nonzero"/></clipPath><clipPath id="70b773a7e9"><rect x="0" width="105" y="0" height="71"/></clipPath><clipPath id="9bb2402b94"><path d="M 0.160156 32 L 47 32 L 47 76 L 0.160156 76 Z M 0.160156 32 " clip-rule="nonzero"/></clipPath><clipPath id="56af4edeee"><rect x="0" width="119" y="0" height="110"/></clipPath><clipPath id="421519833d"><path d="M 211.933594 73.804688 L 217.914062 73.804688 L 217.914062 79.785156 L 211.933594 79.785156 Z M 211.933594 73.804688 " clip-rule="nonzero"/></clipPath><clipPath id="ffb0f5b9ee"><path d="M 212 74 L 217.914062 74 L 217.914062 79.785156 L 212 79.785156 Z M 212 74 " clip-rule="nonzero"/></clipPath></defs><g transform="matrix(1, 0, 0, 1, 115, 24)"><g clip-path="url(#70b773a7e9)"><g fill="#fffcf4" fill-opacity="1"><g transform="translate(1.134349, 53.093099)"><g><path d="M 22.28125 -28.015625 L 42.734375 -28.015625 L 36.84375 -20.171875 C 36.613281 -20.222656 36.390625 -20.304688 36.171875 -20.421875 C 35.960938 -20.535156 36 -20.78125 36.28125 -21.15625 C 36.75 -21.8125 37.109375 -22.441406 37.359375 -23.046875 C 37.617188 -23.648438 37.75 -24.1875 37.75 -24.65625 C 37.75 -26.101562 36.5625 -26.847656 34.1875 -26.890625 L 29.703125 -26.890625 L 21.015625 -15.546875 L 25.78125 -15.546875 C 27.039062 -15.546875 28.078125 -15.78125 28.890625 -16.25 C 29.710938 -16.71875 30.773438 -17.742188 32.078125 -19.328125 C 32.359375 -19.703125 32.671875 -19.898438 33.015625 -19.921875 C 33.367188 -19.953125 33.640625 -19.847656 33.828125 -19.609375 L 29.90625 -14.421875 L 26.34375 -9.671875 C 26.15625 -9.671875 25.953125 -9.738281 25.734375 -9.875 C 25.523438 -10.019531 25.539062 -10.253906 25.78125 -10.578125 C 26.707031 -11.929688 27.171875 -12.84375 27.171875 -13.3125 C 27.171875 -14.007812 26.144531 -14.378906 24.09375 -14.421875 L 20.109375 -14.421875 L 12.953125 -5.046875 L 12.1875 -4.0625 C 11.34375 -2.9375 10.929688 -2.140625 10.953125 -1.671875 C 10.984375 -1.210938 11.421875 -0.984375 12.265625 -0.984375 C 12.773438 -0.984375 12.921875 -0.816406 12.703125 -0.484375 C 12.492188 -0.160156 12.390625 0 12.390625 0 L 1.546875 0 C 1.546875 0 1.554688 -0.160156 1.578125 -0.484375 C 1.597656 -0.816406 1.84375 -0.984375 2.3125 -0.984375 C 3.195312 -0.984375 4.015625 -1.238281 4.765625 -1.75 C 5.515625 -2.257812 6.398438 -3.144531 7.421875 -4.40625 L 22.421875 -23.953125 C 23.210938 -25.078125 23.609375 -25.867188 23.609375 -26.328125 C 23.609375 -26.796875 23.1875 -27.03125 22.34375 -27.03125 C 21.875 -27.03125 21.742188 -27.191406 21.953125 -27.515625 C 22.171875 -27.847656 22.28125 -28.015625 22.28125 -28.015625 Z M 22.28125 -28.015625 "/></g></g></g><g fill="#fffcf4" fill-opacity="1"><g transform="translate(21.028045, 53.093099)"><g><path d="M 17.4375 0.5625 C 15.25 0.5625 13.535156 -0.0078125 12.296875 -1.15625 C 11.054688 -2.300781 10.34375 -3.664062 10.15625 -5.25 C 10.019531 -6.601562 10.289062 -8.257812 10.96875 -10.21875 C 11.644531 -12.1875 12.660156 -14.234375 14.015625 -16.359375 C 15.367188 -18.484375 16.953125 -20.46875 18.765625 -22.3125 C 20.585938 -24.15625 22.570312 -25.660156 24.71875 -26.828125 C 26.875 -27.992188 29.070312 -28.578125 31.3125 -28.578125 C 33.644531 -28.578125 35.394531 -27.96875 36.5625 -26.75 C 37.726562 -25.539062 38.40625 -24.210938 38.59375 -22.765625 C 38.78125 -21.273438 38.535156 -19.523438 37.859375 -17.515625 C 37.179688 -15.503906 36.175781 -13.445312 34.84375 -11.34375 C 33.519531 -9.25 31.945312 -7.300781 30.125 -5.5 C 28.300781 -3.695312 26.3125 -2.234375 24.15625 -1.109375 C 22.007812 0.00390625 19.769531 0.5625 17.4375 0.5625 Z M 32.578125 -27.390625 C 31.585938 -27.390625 30.40625 -26.96875 29.03125 -26.125 C 27.65625 -25.28125 26.207031 -24.15625 24.6875 -22.75 C 23.175781 -21.351562 21.679688 -19.789062 20.203125 -18.0625 C 18.734375 -16.34375 17.414062 -14.59375 16.25 -12.8125 C 15.082031 -11.039062 14.179688 -9.359375 13.546875 -7.765625 C 12.921875 -6.179688 12.675781 -4.804688 12.8125 -3.640625 C 12.90625 -2.753906 13.328125 -2.019531 14.078125 -1.4375 C 14.828125 -0.851562 15.738281 -0.5625 16.8125 -0.5625 C 18.070312 -0.5625 19.566406 -1.164062 21.296875 -2.375 C 23.023438 -3.59375 24.765625 -5.171875 26.515625 -7.109375 C 28.265625 -9.046875 29.882812 -11.109375 31.375 -13.296875 C 32.875 -15.492188 34.039062 -17.617188 34.875 -19.671875 C 35.71875 -21.734375 36.070312 -23.441406 35.9375 -24.796875 C 35.84375 -25.492188 35.515625 -26.097656 34.953125 -26.609375 C 34.390625 -27.128906 33.597656 -27.390625 32.578125 -27.390625 Z M 32.578125 -27.390625 "/></g></g></g><g fill="#fffcf4" fill-opacity="1"><g transform="translate(43.093195, 53.093099)"><g><path d="M 32.71875 -22.96875 L 18.359375 -4.34375 C 17.460938 -3.082031 17.003906 -2.207031 16.984375 -1.71875 C 16.960938 -1.226562 17.394531 -0.984375 18.28125 -0.984375 C 18.75 -0.984375 18.878906 -0.816406 18.671875 -0.484375 C 18.460938 -0.160156 18.359375 0 18.359375 0 L 7.5 0 C 7.5 0 7.507812 -0.160156 7.53125 -0.484375 C 7.550781 -0.816406 7.796875 -0.984375 8.265625 -0.984375 C 9.203125 -0.984375 10.066406 -1.257812 10.859375 -1.8125 C 11.648438 -2.375 12.582031 -3.359375 13.65625 -4.765625 L 28.234375 -23.671875 C 29.535156 -25.546875 29.882812 -26.617188 29.28125 -26.890625 L 28.71875 -26.890625 C 26.425781 -26.890625 24.578125 -26.539062 23.171875 -25.84375 C 21.773438 -25.144531 20.65625 -24.304688 19.8125 -23.328125 C 18.976562 -22.347656 18.210938 -21.4375 17.515625 -20.59375 C 17.234375 -20.3125 16.925781 -20.171875 16.59375 -20.171875 C 16.457031 -20.171875 16.34375 -20.191406 16.25 -20.234375 C 16.15625 -20.285156 16.0625 -20.335938 15.96875 -20.390625 L 21.71875 -28.015625 L 45.875 -28.015625 L 39.921875 -20.171875 C 39.734375 -20.222656 39.535156 -20.304688 39.328125 -20.421875 C 39.117188 -20.535156 39.128906 -20.78125 39.359375 -21.15625 C 40.390625 -22.550781 40.90625 -23.71875 40.90625 -24.65625 C 40.90625 -26.101562 39.644531 -26.847656 37.125 -26.890625 C 36.425781 -26.710938 35.75 -26.316406 35.09375 -25.703125 C 34.4375 -25.097656 33.644531 -24.1875 32.71875 -22.96875 Z M 32.71875 -22.96875 "/></g></g></g><g clip-path="url(#d5c095ba21)"><g fill="#fffcf4" fill-opacity="1"><g transform="translate(65.508648, 53.093099)"><g><path d="M 17.4375 0.5625 C 15.25 0.5625 13.535156 -0.0078125 12.296875 -1.15625 C 11.054688 -2.300781 10.34375 -3.664062 10.15625 -5.25 C 10.019531 -6.601562 10.289062 -8.257812 10.96875 -10.21875 C 11.644531 -12.1875 12.660156 -14.234375 14.015625 -16.359375 C 15.367188 -18.484375 16.953125 -20.46875 18.765625 -22.3125 C 20.585938 -24.15625 22.570312 -25.660156 24.71875 -26.828125 C 26.875 -27.992188 29.070312 -28.578125 31.3125 -28.578125 C 33.644531 -28.578125 35.394531 -27.96875 36.5625 -26.75 C 37.726562 -25.539062 38.40625 -24.210938 38.59375 -22.765625 C 38.78125 -21.273438 38.535156 -19.523438 37.859375 -17.515625 C 37.179688 -15.503906 36.175781 -13.445312 34.84375 -11.34375 C 33.519531 -9.25 31.945312 -7.300781 30.125 -5.5 C 28.300781 -3.695312 26.3125 -2.234375 24.15625 -1.109375 C 22.007812 0.00390625 19.769531 0.5625 17.4375 0.5625 Z M 32.578125 -27.390625 C 31.585938 -27.390625 30.40625 -26.96875 29.03125 -26.125 C 27.65625 -25.28125 26.207031 -24.15625 24.6875 -22.75 C 23.175781 -21.351562 21.679688 -19.789062 20.203125 -18.0625 C 18.734375 -16.34375 17.414062 -14.59375 16.25 -12.8125 C 15.082031 -11.039062 14.179688 -9.359375 13.546875 -7.765625 C 12.921875 -6.179688 12.675781 -4.804688 12.8125 -3.640625 C 12.90625 -2.753906 13.328125 -2.019531 14.078125 -1.4375 C 14.828125 -0.851562 15.738281 -0.5625 16.8125 -0.5625 C 18.070312 -0.5625 19.566406 -1.164062 21.296875 -2.375 C 23.023438 -3.59375 24.765625 -5.171875 26.515625 -7.109375 C 28.265625 -9.046875 29.882812 -11.109375 31.375 -13.296875 C 32.875 -15.492188 34.039062 -17.617188 34.875 -19.671875 C 35.71875 -21.734375 36.070312 -23.441406 35.9375 -24.796875 C 35.84375 -25.492188 35.515625 -26.097656 34.953125 -26.609375 C 34.390625 -27.128906 33.597656 -27.390625 32.578125 -27.390625 Z M 32.578125 -27.390625 "/></g></g></g></g><g fill="#fffcf4" fill-opacity="1"><g transform="translate(90.940973, 53.093099)"><g/></g></g></g></g><g transform="matrix(1, 0, 0, 1, 213, 18)"><g clip-path="url(#56af4edeee)"><g clip-path="url(#9bb2402b94)"><g fill="#fffcf4" fill-opacity="1"><g transform="translate(4.312988, 73.704953)"><g><path d="M 40.484375 -40.484375 C 38.140625 -40.484375 32.664062 -36.71875 24.0625 -29.1875 C 15.457031 -21.65625 8.488281 -14.734375 3.15625 -8.421875 C 9.375 -12.671875 17.207031 -18.664062 26.65625 -26.40625 C 36.101562 -34.15625 40.828125 -38.773438 40.828125 -40.265625 C 40.828125 -40.410156 40.710938 -40.484375 40.484375 -40.484375 Z M 1.046875 -5.828125 C -0.816406 -3.347656 -1.75 -1.675781 -1.75 -0.8125 C -1.75 0.0507812 -1.351562 0.484375 -0.5625 0.484375 C 1.632812 0.484375 5.65625 -1.546875 11.5 -5.609375 L 11.640625 -4.5625 C 5.421875 -0.488281 1.023438 1.546875 -1.546875 1.546875 C -2.804688 1.546875 -3.4375 0.960938 -3.4375 -0.203125 C -3.4375 -2.773438 -0.429688 -7.414062 5.578125 -14.125 C 11.585938 -20.84375 18.226562 -27.066406 25.5 -32.796875 C 32.769531 -38.523438 37.925781 -41.390625 40.96875 -41.390625 C 41.53125 -41.390625 41.8125 -41.179688 41.8125 -40.765625 C 41.8125 -39.640625 40.675781 -37.867188 38.40625 -35.453125 C 36.144531 -33.046875 33.09375 -30.300781 29.25 -27.21875 C 25.414062 -24.132812 21.835938 -21.328125 18.515625 -18.796875 C 15.203125 -16.273438 11.601562 -13.597656 7.71875 -10.765625 C 3.832031 -7.941406 1.609375 -6.296875 1.046875 -5.828125 Z M 1.046875 -5.828125 "/></g></g></g></g><g fill="#fffcf4" fill-opacity="1"><g transform="translate(13.713884, 73.704953)"><g><path d="M -0.484375 0.140625 C 1.285156 0.140625 3.65625 -0.757812 6.625 -2.5625 C 9.59375 -4.363281 12.070312 -6.101562 14.0625 -7.78125 C 16.050781 -9.46875 17.046875 -10.453125 17.046875 -10.734375 C 17.046875 -11.015625 16.707031 -11.25 16.03125 -11.4375 C 15.351562 -11.625 14.425781 -11.71875 13.25 -11.71875 C 12.082031 -11.71875 10.539062 -11.257812 8.625 -10.34375 C 6.707031 -9.4375 5.046875 -8.347656 3.640625 -7.078125 C 2.242188 -5.816406 1.078125 -4.578125 0.140625 -3.359375 C -0.796875 -2.148438 -1.265625 -1.265625 -1.265625 -0.703125 C -1.265625 -0.140625 -1.003906 0.140625 -0.484375 0.140625 Z M 18.3125 -11.640625 C 19.25 -12.390625 19.765625 -12.765625 19.859375 -12.765625 C 21.117188 -12.628906 21.769531 -12.523438 21.8125 -12.453125 C 21.863281 -12.378906 21.890625 -12.296875 21.890625 -12.203125 C 21.890625 -12.109375 21.703125 -11.816406 21.328125 -11.328125 C 20.953125 -10.835938 19.851562 -9.679688 18.03125 -7.859375 C 13.488281 -3.410156 11.21875 -0.722656 11.21875 0.203125 C 11.21875 0.578125 11.382812 0.765625 11.71875 0.765625 C 13.957031 0.765625 18.164062 -1.359375 24.34375 -5.609375 L 24.484375 -4.5625 C 18.265625 -0.488281 13.867188 1.546875 11.296875 1.546875 C 10.035156 1.546875 9.40625 0.953125 9.40625 -0.234375 C 9.40625 -1.429688 10.128906 -2.988281 11.578125 -4.90625 C 6.054688 -0.84375 1.753906 1.210938 -1.328125 1.265625 C -2.453125 1.265625 -3.015625 0.585938 -3.015625 -0.765625 C -3.015625 -3.203125 -1.460938 -5.800781 1.640625 -8.5625 C 4.753906 -11.320312 8.863281 -12.703125 13.96875 -12.703125 C 15.644531 -12.703125 17.09375 -12.347656 18.3125 -11.640625 Z M 18.3125 -11.640625 "/></g></g></g><g fill="#fffcf4" fill-opacity="1"><g transform="translate(35.953308, 73.704953)"><g><path d="M 31.078125 -34.09375 C 31.078125 -33.90625 30.816406 -33.566406 30.296875 -33.078125 C 29.785156 -32.585938 28.863281 -31.722656 27.53125 -30.484375 C 26.195312 -29.242188 24.59375 -27.757812 22.71875 -26.03125 C 20.851562 -24.300781 19.289062 -22.847656 18.03125 -21.671875 L 29.75 -21.671875 C 29.882812 -21.671875 29.953125 -21.578125 29.953125 -21.390625 C 29.953125 -20.835938 29.742188 -20.5625 29.328125 -20.5625 L 16.84375 -20.5625 C 4.769531 -9.144531 -1.265625 -2.382812 -1.265625 -0.28125 C -1.265625 0.226562 -0.9375 0.484375 -0.28125 0.484375 C 0.84375 0.484375 4.117188 -1.21875 9.546875 -4.625 C 10.472656 -5.1875 11.03125 -5.515625 11.21875 -5.609375 L 11.359375 -4.5625 C 5.003906 -0.351562 0.492188 1.75 -2.171875 1.75 C -3.578125 1.75 -4.28125 1.234375 -4.28125 0.203125 C -4.28125 -1.242188 -3.179688 -3.207031 -0.984375 -5.6875 C 1.921875 -9.144531 6.765625 -14.078125 13.546875 -20.484375 L 1.46875 -20.484375 C 0.8125 -20.484375 0.484375 -20.679688 0.484375 -21.078125 C 0.484375 -21.472656 0.671875 -21.671875 1.046875 -21.671875 L 14.734375 -21.671875 L 28.765625 -34.59375 C 28.992188 -34.78125 29.4375 -34.847656 30.09375 -34.796875 C 30.75 -34.753906 31.078125 -34.519531 31.078125 -34.09375 Z M 31.078125 -34.09375 "/></g></g></g><g fill="#fffcf4" fill-opacity="1"><g transform="translate(45.073576, 73.704953)"><g><path d="M 31.078125 -34.09375 C 31.078125 -33.90625 30.816406 -33.566406 30.296875 -33.078125 C 29.785156 -32.585938 28.863281 -31.722656 27.53125 -30.484375 C 26.195312 -29.242188 24.59375 -27.757812 22.71875 -26.03125 C 20.851562 -24.300781 19.289062 -22.847656 18.03125 -21.671875 L 29.75 -21.671875 C 29.882812 -21.671875 29.953125 -21.578125 29.953125 -21.390625 C 29.953125 -20.835938 29.742188 -20.5625 29.328125 -20.5625 L 16.84375 -20.5625 C 4.769531 -9.144531 -1.265625 -2.382812 -1.265625 -0.28125 C -1.265625 0.226562 -0.9375 0.484375 -0.28125 0.484375 C 0.84375 0.484375 4.117188 -1.21875 9.546875 -4.625 C 10.472656 -5.1875 11.03125 -5.515625 11.21875 -5.609375 L 11.359375 -4.5625 C 5.003906 -0.351562 0.492188 1.75 -2.171875 1.75 C -3.578125 1.75 -4.28125 1.234375 -4.28125 0.203125 C -4.28125 -1.242188 -3.179688 -3.207031 -0.984375 -5.6875 C 1.921875 -9.144531 6.765625 -14.078125 13.546875 -20.484375 L 1.46875 -20.484375 C 0.8125 -20.484375 0.484375 -20.679688 0.484375 -21.078125 C 0.484375 -21.472656 0.671875 -21.671875 1.046875 -21.671875 L 14.734375 -21.671875 L 28.765625 -34.59375 C 28.992188 -34.78125 29.4375 -34.847656 30.09375 -34.796875 C 30.75 -34.753906 31.078125 -34.519531 31.078125 -34.09375 Z M 31.078125 -34.09375 "/></g></g></g><g fill="#fffcf4" fill-opacity="1"><g transform="translate(54.193844, 73.704953)"><g><path d="M 13.546875 -11.78125 C 13.546875 -12.15625 13.171875 -12.34375 12.421875 -12.34375 C 11.671875 -12.34375 10.148438 -11.628906 7.859375 -10.203125 C 5.566406 -8.773438 3.625 -7.242188 2.03125 -5.609375 C 5.164062 -6.128906 7.867188 -7.078125 10.140625 -8.453125 C 12.410156 -9.835938 13.546875 -10.945312 13.546875 -11.78125 Z M -0.203125 -1.890625 C -0.203125 -0.535156 0.726562 0.140625 2.59375 0.140625 C 6.144531 0.140625 10.566406 -1.773438 15.859375 -5.609375 L 16 -4.5625 C 10.476562 -0.675781 5.753906 1.265625 1.828125 1.265625 C -0.984375 1.265625 -2.390625 0.0976562 -2.390625 -2.234375 C -2.390625 -4.578125 -0.648438 -7.007812 2.828125 -9.53125 C 6.316406 -12.0625 9.910156 -13.328125 13.609375 -13.328125 C 14.773438 -13.328125 15.359375 -12.976562 15.359375 -12.28125 C 15.359375 -11.15625 14.0625 -9.804688 11.46875 -8.234375 C 8.875 -6.671875 5.472656 -5.515625 1.265625 -4.765625 C 0.285156 -3.648438 -0.203125 -2.691406 -0.203125 -1.890625 Z M -0.203125 -1.890625 "/></g></g></g><g fill="#fffcf4" fill-opacity="1"><g transform="translate(67.944403, 73.704953)"><g><path d="M 8.625 -9.96875 L 11.921875 -10.390625 C 12.484375 -10.390625 12.925781 -10.203125 13.25 -9.828125 C 13.582031 -9.453125 13.75 -9.003906 13.75 -8.484375 C 13.75 -7.460938 13.023438 -6.34375 11.578125 -5.125 C 10.128906 -3.90625 8.691406 -2.753906 7.265625 -1.671875 C 5.835938 -0.597656 5.125 0.257812 5.125 0.90625 C 5.125 1.28125 5.425781 1.46875 6.03125 1.46875 C 8.039062 1.46875 11.101562 0.300781 15.21875 -2.03125 C 17 -3.019531 18.894531 -4.210938 20.90625 -5.609375 L 21.046875 -4.5625 C 19.453125 -3.53125 17.675781 -2.476562 15.71875 -1.40625 C 14.59375 -0.695312 12.953125 0.109375 10.796875 1.015625 C 8.648438 1.929688 6.875 2.390625 5.46875 2.390625 C 4.070312 2.390625 3.375 1.753906 3.375 0.484375 C 3.375 -0.960938 4.117188 -2.328125 5.609375 -3.609375 C 7.109375 -4.898438 8.59375 -5.976562 10.0625 -6.84375 C 11.539062 -7.707031 12.28125 -8.375 12.28125 -8.84375 C 12.28125 -8.976562 12.113281 -9.046875 11.78125 -9.046875 L 7.859375 -8.703125 C 7.109375 -8.703125 6.429688 -8.769531 5.828125 -8.90625 C 3.578125 -7.320312 1.210938 -5.753906 -1.265625 -4.203125 L -1.46875 -5.1875 L 5.1875 -9.828125 C 5.238281 -10.710938 5.800781 -11.597656 6.875 -12.484375 C 7.945312 -13.378906 8.859375 -13.828125 9.609375 -13.828125 C 10.359375 -13.828125 10.734375 -13.625 10.734375 -13.21875 C 10.734375 -12.820312 10.285156 -12.316406 9.390625 -11.703125 C 8.503906 -11.097656 8.0625 -10.65625 8.0625 -10.375 C 8.0625 -10.101562 8.25 -9.96875 8.625 -9.96875 Z M 8.625 -9.96875 "/></g></g></g><g fill="#fffcf4" fill-opacity="1"><g transform="translate(86.746189, 73.704953)"><g><path d="M -0.703125 -0.484375 C -0.703125 -1.003906 -0.28125 -1.640625 0.5625 -2.390625 C 1.40625 -3.140625 2.164062 -3.515625 2.84375 -3.515625 C 3.519531 -3.515625 3.859375 -3.207031 3.859375 -2.59375 C 3.859375 -1.894531 3.4375 -1.207031 2.59375 -0.53125 C 1.75 0.144531 0.988281 0.484375 0.3125 0.484375 C -0.363281 0.484375 -0.703125 0.160156 -0.703125 -0.484375 Z M 20.90625 -36.546875 C 20.90625 -38.046875 20.601562 -39.40625 20 -40.625 C 16.675781 -39.6875 13.625 -37.960938 10.84375 -35.453125 C 8.0625 -32.953125 6.671875 -30.421875 6.671875 -27.859375 C 6.671875 -26.453125 7.007812 -25.394531 7.6875 -24.6875 C 8.363281 -23.988281 9.265625 -23.640625 10.390625 -23.640625 C 12.773438 -23.640625 15.125 -24.878906 17.4375 -27.359375 C 19.75 -29.835938 20.90625 -32.898438 20.90625 -36.546875 Z M 4.765625 -5.546875 L 3.71875 -6.25 C 3.71875 -8.070312 4.617188 -10.007812 6.421875 -12.0625 C 8.222656 -14.125 10.410156 -16.101562 12.984375 -18 C 15.554688 -19.894531 18.101562 -21.753906 20.625 -23.578125 C 26.800781 -28.066406 29.890625 -31.738281 29.890625 -34.59375 C 29.890625 -38.988281 27.804688 -41.1875 23.640625 -41.1875 C 22.890625 -41.1875 21.976562 -41.066406 20.90625 -40.828125 C 21.75 -39.335938 22.171875 -37.722656 22.171875 -35.984375 C 22.171875 -31.960938 20.929688 -28.6875 18.453125 -26.15625 C 15.972656 -23.632812 13.351562 -22.375 10.59375 -22.375 C 9.050781 -22.375 7.785156 -22.828125 6.796875 -23.734375 C 5.816406 -24.648438 5.328125 -25.976562 5.328125 -27.71875 C 5.328125 -30.375 6.8125 -33.035156 9.78125 -35.703125 C 12.75 -38.367188 16.035156 -40.195312 19.640625 -41.1875 C 17.441406 -44.96875 12.882812 -46.859375 5.96875 -46.859375 L 6.453125 -47.359375 C 13.328125 -47.304688 18.050781 -45.34375 20.625 -41.46875 C 21.789062 -41.695312 22.84375 -41.8125 23.78125 -41.8125 C 25.9375 -41.8125 27.644531 -41.226562 28.90625 -40.0625 C 30.164062 -38.894531 30.796875 -37.070312 30.796875 -34.59375 C 30.796875 -32.113281 29.960938 -29.691406 28.296875 -27.328125 C 26.640625 -24.960938 24.582031 -22.851562 22.125 -21 C 19.675781 -19.15625 17.210938 -17.394531 14.734375 -15.71875 C 8.648438 -11.601562 5.328125 -8.210938 4.765625 -5.546875 Z M 4.765625 -5.546875 "/></g></g></g></g></g><g clip-path="url(#421519833d)"><path fill="#fefaed" d="M 215.050781 73.804688 C 213.332031 73.804688 211.933594 75.203125 211.933594 76.921875 C 211.933594 78.640625 213.332031 80.039062 215.050781 80.039062 C 216.769531 80.039062 218.171875 78.640625 218.171875 76.921875 C 218.171875 75.203125 216.769531 73.804688 215.050781 73.804688 Z M 215.050781 79.433594 C 213.667969 79.433594 212.542969 78.308594 212.542969 76.921875 C 212.542969 75.539062 213.667969 74.414062 215.050781 74.414062 C 216.4375 74.414062 217.5625 75.539062 217.5625 76.921875 C 217.5625 78.308594 216.4375 79.433594 215.050781 79.433594 Z M 215.050781 79.433594 " fill-opacity="1" fill-rule="nonzero"/></g><g clip-path="url(#ffb0f5b9ee)"><path fill="#fefaed" d="M 215.050781 74.71875 C 213.835938 74.71875 212.847656 75.707031 212.847656 76.921875 C 212.847656 78.140625 213.835938 79.128906 215.050781 79.128906 C 216.269531 79.128906 217.257812 78.140625 217.257812 76.921875 C 217.257812 75.707031 216.269531 74.71875 215.050781 74.71875 Z M 216.648438 77.074219 C 216.566406 77.074219 216.496094 77.007812 216.496094 76.921875 C 216.496094 76.871094 216.496094 76.816406 216.488281 76.761719 C 216.414062 76.09375 215.882812 75.5625 215.21875 75.492188 C 215.160156 75.476562 215.105469 75.476562 215.050781 75.476562 C 214.96875 75.476562 214.902344 75.410156 214.902344 75.324219 C 214.902344 75.242188 214.96875 75.171875 215.050781 75.171875 C 216.019531 75.171875 216.800781 75.957031 216.800781 76.921875 C 216.800781 77.007812 216.734375 77.074219 216.648438 77.074219 Z M 216.648438 77.074219 " fill-opacity="1" fill-rule="nonzero"/></g></svg>